# xmcd
#
# Track frame offsets: 
#        151
#        19952
#        33594
#        49374
#        65291
#        80243
#        93128
#        111538
#        119589
#        136746
#        150527
#        168858
#
# Disc length: 2570 seconds
#
# Revision: 0
# Processed by: cddbd v1.5.2PL0 Copyright (c) Steve Scherf et al.
# Submitted via: ExactAudioCopy v0.99pb4
#
DISCID=a10a080c
DTITLE=The Cattlestops - Back To Rosetta Road
DYEAR=2007
DGENRE=Country
TTITLE0=Back To Rosetta Road
TTITLE1=Country Sedan
TTITLE2=Emily Bay
TTITLE3=Damn That Cattlestop
TTITLE4=Can't Buy A Piece Of My Love
TTITLE5=It Just Happens ...
TTITLE6=Someone Been Pickin' On Me Blues
TTITLE7=Raumati Rag
TTITLE8=I Don't Recognise This Neighbourhood
TTITLE9=Play My Way Home
TTITLE10=Reaching Out For Someone
TTITLE11=End Of The Day
EXTD=
EXTT0=
EXTT1=
EXTT2=
EXTT3=
EXTT4=
EXTT5=
EXTT6=
EXTT7=
EXTT8=
EXTT9=
EXTT10=
EXTT11=
PLAYORDER=
